<?xml version="1.0"?>
<svg xmlns="http://www.w3.org/2000/svg" id="filled_outline" data-name="filled outline" viewBox="0 0 512 512" width="512" height="512"><circle cx="296" cy="216" r="192" style="fill:#eebf3e"/><path d="M311.1499,123.79,297.98,141.37012a14.03527,14.03527,0,0,1-4.91992,4.09985l-23.89014,11.95a13.96917,13.96917,0,0,1-10.6499.75l-16.37012-5.45A13.7679,13.7679,0,0,0,237.74,152h-7.79A13.94277,13.94277,0,0,0,216,165.95v6.76a13.887,13.887,0,0,1-1.47,6.23l-10.95,21.8999a16.03371,16.03371,0,0,0,0,14.32007L212.1499,232.29A13.93205,13.93205,0,0,0,224.62012,240h33.42993A13.94277,13.94277,0,0,1,272,253.95v152.5a191.03826,191.03826,0,0,1-96-40.61987V248l-22.31006-44.62012A16.00819,16.00819,0,0,1,152,196.22V165.95A13.94277,13.94277,0,0,0,138.05005,152H114.92993A192.10773,192.10773,0,0,1,169.01,72h14.42993A15.99591,15.99591,0,0,1,196.75,79.12012l2.37012,3.56982a15.99717,15.99717,0,0,0,22.18994,4.43018L225.27,84.49a13.92525,13.92525,0,0,1,13.97-.86987L261.06006,94.53A13.887,13.887,0,0,0,267.29,96h24.49a13.91043,13.91043,0,0,1,7.73,2.33984l8.22,5.48023A13.94072,13.94072,0,0,1,311.1499,123.79Z" style="fill:#c69324"/><path d="M488,216q0,8.08521-.65991,16H436a11.99685,11.99685,0,0,0-12,12v26.05005a12.0014,12.0014,0,0,1-.62012,3.8L410.73,311.79A11.99133,11.99133,0,0,1,399.3501,320h-10.02a15.988,15.988,0,0,1-9.6001-3.2l-22.6001-16.94995A15.9803,15.9803,0,0,1,350.95,289.67993L345.01,254.04a15.98635,15.98635,0,0,0-5.79-9.86011L310,220.80005a15.99593,15.99593,0,0,1-6-12.49v-15.75A15.99591,15.99591,0,0,1,311.12012,179.25L323.97,170.68994A16.02933,16.02933,0,0,1,332.84009,168H339.51a16.00183,16.00183,0,0,0,15.52-12.12012l4.54-18.17993a15.879,15.879,0,0,1,1.22-3.27l10.79-21.59009A15.99557,15.99557,0,0,1,385.89014,104H412a11.99685,11.99685,0,0,0,12-12V72.8999A191.4945,191.4945,0,0,1,488,216Z" style="fill:#c69324"/><path d="M24,280H93.78413a7.99992,7.99992,0,0,1,4.116,1.14006l34.33417,20.6005a8,8,0,0,0,7.69368.29547l39.76392-19.882a8,8,0,0,1,8.22761.64555l49.99434,35.71025A8.00008,8.00008,0,0,0,242.56372,320H272a8,8,0,0,1,8,8V488H40a16,16,0,0,1-16-16Z" style="fill:#4fbfcb"/><path d="M64,328H96a8,8,0,0,1,8,8V488a0,0,0,0,1,0,0H56a0,0,0,0,1,0,0V336A8,8,0,0,1,64,328Z" style="fill:#efe8e0"/><path d="M152,344h48a0,0,0,0,1,0,0V480a8,8,0,0,1-8,8H160a8,8,0,0,1-8-8V344A0,0,0,0,1,152,344Z" transform="translate(352 832) rotate(180)" style="fill:#eebf3e"/><path d="M208,368h32a8,8,0,0,1,8,8V488a0,0,0,0,1,0,0H200a0,0,0,0,1,0,0V376A8,8,0,0,1,208,368Z" style="fill:#c69324"/><path d="M104,376h48a0,0,0,0,1,0,0V480a8,8,0,0,1-8,8H112a8,8,0,0,1-8-8V376A0,0,0,0,1,104,376Z" transform="translate(256 864) rotate(180)" style="fill:#cc4c4d"/><path d="M296,16C185.71875,16,96,105.71875,96,216a201.61631,201.61631,0,0,0,2.76562,33.32812l15.78126-2.65624A185.58023,185.58023,0,0,1,112,216a183.29045,183.29045,0,0,1,8.7417-56h17.313A5.9482,5.9482,0,0,1,144,165.94531v30.28125a24.11231,24.11231,0,0,0,2.53125,10.72656l22.3125,44.625,14.3125-7.15624-22.3125-44.625A7.97272,7.97272,0,0,1,160,196.22656V165.94531A21.969,21.969,0,0,0,138.05469,144H126.68408a184.81529,184.81529,0,0,1,45.51026-64H183.4375a7.97272,7.97272,0,0,1,6.65625,3.5625l2.375,3.5625A24.0401,24.0401,0,0,0,225.75,93.78125l3.96094-2.63281a5.932,5.932,0,0,1,5.95312-.375l21.83586,10.92187A22.14017,22.14017,0,0,0,267.28906,104h24.48438a5.93193,5.93193,0,0,1,3.30468,1l8.21876,5.47656A5.95762,5.95762,0,0,1,304.75781,119l-13.1875,17.57812a5.87608,5.87608,0,0,1-2.09375,1.73438l-23.89844,11.95312a5.92864,5.92864,0,0,1-4.53124.32032l-16.35938-5.45313A21.86432,21.86432,0,0,0,237.73438,144h-7.78907A21.969,21.969,0,0,0,208,165.94531v6.76563a6.00643,6.00643,0,0,1-.625,2.65625l-10.95312,21.90625a24.16013,24.16013,0,0,0,0,21.46094l8.57031,17.125A21.80319,21.80319,0,0,0,224.61719,248h33.4375A5.9482,5.9482,0,0,1,264,253.94531V288h16V253.94531A21.969,21.969,0,0,0,258.05469,232h-33.4375a5.90349,5.90349,0,0,1-5.3125-3.28906l-8.57031-17.125a8.07562,8.07562,0,0,1,0-7.16406L221.69531,182.5A22.13958,22.13958,0,0,0,224,172.71094v-6.76563A5.9482,5.9482,0,0,1,229.94531,160h7.78907a5.93893,5.93893,0,0,1,1.88281.30469l16.36719,5.45312a21.72906,21.72906,0,0,0,16.75781-1.1875l23.86719-11.9375a21.8407,21.8407,0,0,0,7.76562-6.46875l13.17969-17.57031a21.94253,21.94253,0,0,0-5.38281-31.42969l-8.21876-5.47656A21.86613,21.86613,0,0,0,291.77344,88H267.28906a6.00643,6.00643,0,0,1-2.65625-.625L242.8125,76.46094a21.956,21.956,0,0,0-21.98438,1.375L216.875,80.46875A8.00684,8.00684,0,0,1,205.78125,78.25l-2.375-3.5625a23.83507,23.83507,0,0,0-12.7251-9.43311A183.432,183.432,0,0,1,416,76.68945V92a4.00773,4.00773,0,0,1-4,4H385.89062a23.88135,23.88135,0,0,0-21.46874,13.26562l-10.78907,21.58594a24.82179,24.82179,0,0,0-1.82812,4.91406l-4.53125,18.17188A7.99722,7.99722,0,0,1,339.50781,160h-6.66406a23.89841,23.89841,0,0,0-13.3125,4.03125l-12.84375,8.5625A23.94758,23.94758,0,0,0,296,192.5625v15.75a23.89187,23.89187,0,0,0,9.00781,18.74219l29.20313,23.35937a8.04061,8.04061,0,0,1,2.90625,4.9375L343.05469,291a23.89834,23.89834,0,0,0,9.27343,15.24219l22.60157,16.95312A24.16742,24.16742,0,0,0,389.33594,328h10.01562a19.95513,19.95513,0,0,0,18.96875-13.67188L430.96875,276.375A19.80261,19.80261,0,0,0,432,270.05469V244a4.00773,4.00773,0,0,1,4-4h42.38379C466.58105,330.15381,389.32227,400,296,400v16c110.28125,0,200-89.71875,200-200S406.28125,16,296,16ZM436,224a20.01852,20.01852,0,0,0-20,20v26.05469a4.07521,4.07521,0,0,1-.20312,1.25781l-12.64844,37.95312A4.0005,4.0005,0,0,1,399.35156,312H389.33594a8.08672,8.08672,0,0,1-4.80469-1.60156l-22.60156-16.95313a7.98348,7.98348,0,0,1-3.09375-5.07812l-5.9375-35.64063a24.02839,24.02839,0,0,0-8.67969-14.80468L315.00781,214.5625A7.96958,7.96958,0,0,1,312,208.3125v-15.75a7.97272,7.97272,0,0,1,3.5625-6.65625l12.84375-8.5625A7.94555,7.94555,0,0,1,332.84375,176h6.66406a23.962,23.962,0,0,0,23.28125-18.17969l4.53125-18.14062a8.4399,8.4399,0,0,1,.625-1.67188l10.78907-21.58593A7.9489,7.9489,0,0,1,385.89062,112H412a20.00773,20.00773,0,0,0,19.98242-19.82422A183.28718,183.28718,0,0,1,480,216c0,2.68262-.08838,5.34473-.20264,8Z"/><path d="M256,480V376a16.02085,16.02085,0,0,0-16-16H208v-8a16.02085,16.02085,0,0,0-16-16H160a16.02085,16.02085,0,0,0-16,16v16H112V336a16.02085,16.02085,0,0,0-16-16H64a16.02085,16.02085,0,0,0-16,16V480H40a8.00541,8.00541,0,0,1-8-8V288H93.78125l38.10156,22.85938a8.03882,8.03882,0,0,0,7.69531.29687l43.69532-21.84375,52.07812,37.19531A7.996,7.996,0,0,0,240,328h40V312H242.5625l-53.91406-38.50781a7.98076,7.98076,0,0,0-8.22656-.64844l-44.07032,22.03906-36.23437-21.74219A7.9553,7.9553,0,0,0,96,272H32V240H16V472a24.02624,24.02624,0,0,0,24,24H296V480ZM96,480H64V336H96Zm48,0H112V384h32Zm48-104V480H160V384c0-.03955-.01123-.07666-.01172-.11621L159.98438,352H192Zm48,104H208V376h32Z"/></svg>
